<svg xmlns="http://www.w3.org/2000/svg" xmlns:xlink="http://www.w3.org/1999/xlink" width="auto" zoomAndPan="magnify" viewBox="0 0 958.5 263.04" height="56" preserveAspectRatio="xMidYMid meet" version="1.0"><defs><g/><clipPath id="f533eaa819"><path d="M 1.492188 0 L 956.507812 0 L 956.507812 254.074219 L 1.492188 254.074219 Z M 1.492188 0 " clip-rule="nonzero"/></clipPath><clipPath id="3d97b4327f"><path d="M 102 33 L 161 33 L 161 92 L 102 92 Z M 102 33 " clip-rule="nonzero"/></clipPath><clipPath id="6e659fc909"><path d="M 91.050781 65.855469 L 128.402344 22 L 172.261719 59.351562 L 134.90625 103.207031 Z M 91.050781 65.855469 " clip-rule="nonzero"/></clipPath><clipPath id="7777872ccf"><path d="M 109.726562 43.925781 C 99.414062 56.035156 100.871094 74.214844 112.980469 84.53125 C 125.089844 94.84375 143.269531 93.390625 153.582031 81.277344 C 163.898438 69.167969 162.441406 50.988281 150.332031 40.675781 C 138.222656 30.359375 120.042969 31.816406 109.726562 43.925781 Z M 109.726562 43.925781 " clip-rule="nonzero"/></clipPath><clipPath id="ace2295f85"><path d="M 0 0 L 59 0 L 59 59 L 0 59 Z M 0 0 " clip-rule="nonzero"/></clipPath><clipPath id="c95fdcc61f"><path d="M -10.949219 32.855469 L 26.402344 -11 L 70.261719 26.351562 L 32.90625 70.207031 Z M -10.949219 32.855469 " clip-rule="nonzero"/></clipPath><clipPath id="b43a6c7c21"><path d="M 7.726562 10.925781 C -2.585938 23.035156 -1.128906 41.214844 10.980469 51.53125 C 23.089844 61.84375 41.269531 60.390625 51.582031 48.277344 C 61.898438 36.167969 60.441406 17.988281 48.332031 7.675781 C 36.222656 -2.640625 18.042969 -1.183594 7.726562 10.925781 Z M 7.726562 10.925781 " clip-rule="nonzero"/></clipPath><clipPath id="798742c779"><rect x="0" width="59" y="0" height="59"/></clipPath><clipPath id="438f6f7a6b"><path d="M 99 115 L 160 115 L 160 177 L 99 177 Z M 99 115 " clip-rule="nonzero"/></clipPath><clipPath id="54350fd774"><path d="M 86.761719 149.382812 L 126.085938 103.207031 L 172.257812 142.535156 L 132.933594 188.707031 Z M 86.761719 149.382812 " clip-rule="nonzero"/></clipPath><clipPath id="270c593fc6"><path d="M 106.421875 126.296875 C 95.5625 139.046875 97.097656 158.183594 109.847656 169.042969 C 122.597656 179.902344 141.738281 178.371094 152.597656 165.621094 C 163.457031 152.871094 161.921875 133.730469 149.171875 122.871094 C 136.421875 112.011719 117.28125 113.542969 106.421875 126.296875 Z M 106.421875 126.296875 " clip-rule="nonzero"/></clipPath><clipPath id="4f4fb810bf"><path d="M 0 0 L 61 0 L 61 62 L 0 62 Z M 0 0 " clip-rule="nonzero"/></clipPath><clipPath id="2a9bf0f52c"><path d="M -12.238281 34.382812 L 27.085938 -11.792969 L 73.257812 27.535156 L 33.933594 73.707031 Z M -12.238281 34.382812 " clip-rule="nonzero"/></clipPath><clipPath id="7985d35c65"><path d="M 7.421875 11.296875 C -3.4375 24.046875 -1.902344 43.183594 10.847656 54.042969 C 23.597656 64.902344 42.738281 63.371094 53.597656 50.621094 C 64.457031 37.871094 62.921875 18.730469 50.171875 7.871094 C 37.421875 -2.988281 18.28125 -1.457031 7.421875 11.296875 Z M 7.421875 11.296875 " clip-rule="nonzero"/></clipPath><clipPath id="b23575fa62"><rect x="0" width="61" y="0" height="62"/></clipPath><clipPath id="614105cc43"><path d="M 16 79 L 92 79 L 92 155 L 16 155 Z M 16 79 " clip-rule="nonzero"/></clipPath><clipPath id="7f0c032577"><path d="M 1.496094 121.195312 L 50.109375 64.113281 L 107.1875 112.726562 L 58.574219 169.808594 Z M 1.496094 121.195312 " clip-rule="nonzero"/></clipPath><clipPath id="e34b8cb152"><path d="M 25.800781 92.652344 C 12.378906 108.417969 14.273438 132.078125 30.035156 145.5 C 45.796875 158.925781 69.457031 157.03125 82.882812 141.269531 C 96.304688 125.507812 94.410156 101.84375 78.648438 88.421875 C 62.886719 74.996094 39.226562 76.890625 25.800781 92.652344 Z M 25.800781 92.652344 " clip-rule="nonzero"/></clipPath><clipPath id="2340db388f"><path d="M 0 0 L 76 0 L 76 76 L 0 76 Z M 0 0 " clip-rule="nonzero"/></clipPath><clipPath id="33d0ce9a04"><path d="M -14.503906 42.195312 L 34.109375 -14.886719 L 91.1875 33.726562 L 42.574219 90.808594 Z M -14.503906 42.195312 " clip-rule="nonzero"/></clipPath><clipPath id="63b029d626"><path d="M 9.800781 13.652344 C -3.621094 29.417969 -1.726562 53.078125 14.035156 66.5 C 29.796875 79.925781 53.457031 78.03125 66.882812 62.269531 C 80.304688 46.507812 78.410156 22.84375 62.648438 9.421875 C 46.886719 -4.003906 23.226562 -2.109375 9.800781 13.652344 Z M 9.800781 13.652344 " clip-rule="nonzero"/></clipPath><clipPath id="fba73830a8"><rect x="0" width="76" y="0" height="76"/></clipPath><clipPath id="d4d2f737a5"><path d="M 55 29 L 93 29 L 93 68 L 55 68 Z M 55 29 " clip-rule="nonzero"/></clipPath><clipPath id="53fb75756a"><path d="M 47.5 50.539062 L 71.804688 22 L 100.34375 46.304688 L 76.039062 74.847656 Z M 47.5 50.539062 " clip-rule="nonzero"/></clipPath><clipPath id="3cbc2e3a4f"><path d="M 59.652344 36.269531 C 52.941406 44.148438 53.886719 55.980469 61.769531 62.691406 C 69.648438 69.40625 81.480469 68.457031 88.191406 60.574219 C 94.90625 52.695312 93.957031 40.863281 86.074219 34.152344 C 78.195312 27.441406 66.363281 28.386719 59.652344 36.269531 Z M 59.652344 36.269531 " clip-rule="nonzero"/></clipPath><clipPath id="05c03c2ede"><path d="M 0 0 L 38 0 L 38 39 L 0 39 Z M 0 0 " clip-rule="nonzero"/></clipPath><clipPath id="b9145d0181"><path d="M -7.5 21.539062 L 16.804688 -7 L 45.34375 17.304688 L 21.039062 45.847656 Z M -7.5 21.539062 " clip-rule="nonzero"/></clipPath><clipPath id="1ab493f4ad"><path d="M 4.652344 7.269531 C -2.058594 15.148438 -1.113281 26.980469 6.769531 33.691406 C 14.648438 40.40625 26.480469 39.457031 33.191406 31.574219 C 39.90625 23.695312 38.957031 11.863281 31.074219 5.152344 C 23.195312 -1.558594 11.363281 -0.613281 4.652344 7.269531 Z M 4.652344 7.269531 " clip-rule="nonzero"/></clipPath><clipPath id="b92706085f"><rect x="0" width="38" y="0" height="39"/></clipPath><clipPath id="65bffd9d07"><rect x="0" width="780" y="0" height="213"/></clipPath><clipPath id="5a590a726b"><path d="M 184 163 L 956.507812 163 L 956.507812 254.074219 L 184 254.074219 Z M 184 163 " clip-rule="nonzero"/></clipPath><clipPath id="dbf91020ed"><rect x="0" width="773" y="0" height="92"/></clipPath></defs><g clip-path="url(#f533eaa819)"></g><g clip-path="url(#3d97b4327f)"><g clip-path="url(#6e659fc909)"><g clip-path="url(#7777872ccf)"><g transform="matrix(1, 0, 0, 1, 102, 33)"><g clip-path="url(#798742c779)"><g clip-path="url(#ace2295f85)"><g clip-path="url(#c95fdcc61f)"><g clip-path="url(#b43a6c7c21)"><path fill="#ffbd59" d="M -10.949219 32.855469 L 26.402344 -11 L 70.261719 26.351562 L 32.90625 70.207031 Z M -10.949219 32.855469 " fill-opacity="1" fill-rule="nonzero"/></g></g></g></g></g></g></g></g><g clip-path="url(#438f6f7a6b)"><g clip-path="url(#54350fd774)"><g clip-path="url(#270c593fc6)"><g transform="matrix(1, 0, 0, 1, 99, 115)"><g clip-path="url(#b23575fa62)"><g clip-path="url(#4f4fb810bf)"><g clip-path="url(#2a9bf0f52c)"><g clip-path="url(#7985d35c65)"><path fill="#38b6ff" d="M -12.238281 34.382812 L 27.085938 -11.792969 L 73.257812 27.535156 L 33.933594 73.707031 Z M -12.238281 34.382812 " fill-opacity="1" fill-rule="nonzero"/></g></g></g></g></g></g></g></g><g clip-path="url(#614105cc43)"><g clip-path="url(#7f0c032577)"><g clip-path="url(#e34b8cb152)"><g transform="matrix(1, 0, 0, 1, 16, 79)"><g clip-path="url(#fba73830a8)"><g clip-path="url(#2340db388f)"><g clip-path="url(#33d0ce9a04)"><g clip-path="url(#63b029d626)"><path fill="#cb6ce6" d="M -14.503906 42.195312 L 34.109375 -14.886719 L 91.1875 33.726562 L 42.574219 90.808594 Z M -14.503906 42.195312 " fill-opacity="1" fill-rule="nonzero"/></g></g></g></g></g></g></g></g><g clip-path="url(#d4d2f737a5)"><g clip-path="url(#53fb75756a)"><g clip-path="url(#3cbc2e3a4f)"><g transform="matrix(1, 0, 0, 1, 55, 29)"><g clip-path="url(#b92706085f)"><g clip-path="url(#05c03c2ede)"><g clip-path="url(#b9145d0181)"><g clip-path="url(#1ab493f4ad)"><path fill="#ff3131" d="M -7.5 21.539062 L 16.804688 -7 L 45.34375 17.304688 L 21.039062 45.847656 Z M -7.5 21.539062 " fill-opacity="1" fill-rule="nonzero"/></g></g></g></g></g></g></g></g><g transform="matrix(1, 0, 0, 1, 172, 0.000000000000055942)"><g clip-path="url(#65bffd9d07)"><g fill="#ffffff" fill-opacity="1"><g transform="translate(0.258145, 168.112349)"><g><path d="M 14.609375 -123.203125 L 43.125 -123.203125 L 43.125 -23.234375 L 104.90625 -23.234375 L 104.90625 0 L 14.609375 0 Z M 14.609375 -123.203125 "/></g></g></g><g fill="#ffffff" fill-opacity="1"><g transform="translate(103.927396, 168.112349)"><g><path d="M 74.28125 2.109375 C 61.488281 2.109375 49.957031 -0.644531 39.6875 -6.15625 C 29.425781 -11.675781 21.390625 -19.273438 15.578125 -28.953125 C 9.765625 -38.628906 6.859375 -49.515625 6.859375 -61.609375 C 6.859375 -73.691406 9.765625 -84.570312 15.578125 -94.25 C 21.390625 -103.9375 29.425781 -111.535156 39.6875 -117.046875 C 49.957031 -122.566406 61.488281 -125.328125 74.28125 -125.328125 C 87.070312 -125.328125 98.570312 -122.566406 108.78125 -117.046875 C 118.988281 -111.535156 127.023438 -103.9375 132.890625 -94.25 C 138.753906 -84.570312 141.6875 -73.691406 141.6875 -61.609375 C 141.6875 -49.515625 138.753906 -38.628906 132.890625 -28.953125 C 127.023438 -19.273438 118.988281 -11.675781 108.78125 -6.15625 C 98.570312 -0.644531 87.070312 2.109375 74.28125 2.109375 Z M 74.28125 -22.171875 C 81.550781 -22.171875 88.117188 -23.84375 93.984375 -27.1875 C 99.859375 -30.53125 104.46875 -35.195312 107.8125 -41.1875 C 111.15625 -47.175781 112.828125 -53.984375 112.828125 -61.609375 C 112.828125 -69.234375 111.15625 -76.035156 107.8125 -82.015625 C 104.46875 -88.003906 99.859375 -92.671875 93.984375 -96.015625 C 88.117188 -99.359375 81.550781 -101.03125 74.28125 -101.03125 C 67 -101.03125 60.425781 -99.359375 54.5625 -96.015625 C 48.695312 -92.671875 44.09375 -88.003906 40.75 -82.015625 C 37.40625 -76.035156 35.734375 -69.234375 35.734375 -61.609375 C 35.734375 -53.984375 37.40625 -47.175781 40.75 -41.1875 C 44.09375 -35.195312 48.695312 -30.53125 54.5625 -27.1875 C 60.425781 -23.84375 67 -22.171875 74.28125 -22.171875 Z M 74.28125 -22.171875 "/></g></g></g><g fill="#ffffff" fill-opacity="1"><g transform="translate(249.838836, 168.112349)"><g><path d="M 67.9375 -123.203125 C 78.851562 -123.203125 88.328125 -121.382812 96.359375 -117.75 C 104.398438 -114.113281 110.59375 -108.953125 114.9375 -102.265625 C 119.28125 -95.578125 121.453125 -87.65625 121.453125 -78.5 C 121.453125 -69.46875 119.28125 -61.578125 114.9375 -54.828125 C 110.59375 -48.078125 104.398438 -42.910156 96.359375 -39.328125 C 88.328125 -35.753906 78.851562 -33.96875 67.9375 -33.96875 L 43.125 -33.96875 L 43.125 0 L 14.609375 0 L 14.609375 -123.203125 Z M 66.359375 -57.203125 C 74.921875 -57.203125 81.429688 -59.050781 85.890625 -62.75 C 90.347656 -66.445312 92.578125 -71.695312 92.578125 -78.5 C 92.578125 -85.425781 90.347656 -90.738281 85.890625 -94.4375 C 81.429688 -98.132812 74.921875 -99.984375 66.359375 -99.984375 L 43.125 -99.984375 L 43.125 -57.203125 Z M 66.359375 -57.203125 "/></g></g></g><g fill="#ffffff" fill-opacity="1"><g transform="translate(376.037253, 168.112349)"><g><path d="M 73.578125 2.109375 C 61.015625 2.109375 49.660156 -0.613281 39.515625 -6.0625 C 29.367188 -11.519531 21.390625 -19.085938 15.578125 -28.765625 C 9.765625 -38.453125 6.859375 -49.398438 6.859375 -61.609375 C 6.859375 -73.804688 9.765625 -84.742188 15.578125 -94.421875 C 21.390625 -104.109375 29.367188 -111.679688 39.515625 -117.140625 C 49.660156 -122.597656 61.070312 -125.328125 73.75 -125.328125 C 84.425781 -125.328125 94.078125 -123.445312 102.703125 -119.6875 C 111.328125 -115.9375 118.570312 -110.539062 124.4375 -103.5 L 106.140625 -86.59375 C 97.804688 -96.21875 87.476562 -101.03125 75.15625 -101.03125 C 67.53125 -101.03125 60.722656 -99.359375 54.734375 -96.015625 C 48.753906 -92.671875 44.09375 -88.003906 40.75 -82.015625 C 37.40625 -76.035156 35.734375 -69.234375 35.734375 -61.609375 C 35.734375 -53.984375 37.40625 -47.175781 40.75 -41.1875 C 44.09375 -35.195312 48.753906 -30.53125 54.734375 -27.1875 C 60.722656 -23.84375 67.53125 -22.171875 75.15625 -22.171875 C 87.476562 -22.171875 97.804688 -27.039062 106.140625 -36.78125 L 124.4375 -19.890625 C 118.570312 -12.734375 111.296875 -7.273438 102.609375 -3.515625 C 93.929688 0.234375 84.253906 2.109375 73.578125 2.109375 Z M 73.578125 2.109375 "/></g></g></g><g fill="#ffffff" fill-opacity="1"><g transform="translate(502.411686, 168.112349)"><g><path d="M 127.609375 -123.203125 L 127.609375 0 L 99.09375 0 L 99.09375 -50.515625 L 43.125 -50.515625 L 43.125 0 L 14.609375 0 L 14.609375 -123.203125 L 43.125 -123.203125 L 43.125 -74.625 L 99.09375 -74.625 L 99.09375 -123.203125 Z M 127.609375 -123.203125 "/></g></g></g><g fill="#ffffff" fill-opacity="1"><g transform="translate(641.986803, 168.112349)"><g><path d="M 95.75 -26.40625 L 38.546875 -26.40625 L 27.640625 0 L -1.578125 0 L 53.328125 -123.203125 L 81.5 -123.203125 L 136.59375 0 L 106.671875 0 Z M 86.78125 -48.046875 L 67.234375 -95.21875 L 47.703125 -48.046875 Z M 86.78125 -48.046875 "/></g></g></g></g></g><g clip-path="url(#5a590a726b)"><g transform="matrix(1, 0, 0, 1, 184, 163)"><g clip-path="url(#dbf91020ed)"><g fill="#ffbd59" fill-opacity="1"><g transform="translate(1.002178, 72.689594)"><g><path d="M 15.6875 0 L 5.15625 0 L 5.15625 -51.53125 L 15.6875 -51.53125 Z M 15.6875 0 "/></g></g></g><g fill="#ffbd59" fill-opacity="1"><g transform="translate(32.442551, 72.689594)"><g><path d="M 4.34375 0 L 4.34375 -37.546875 L 11.859375 -37.546875 L 13.46875 -33.875 L 13.84375 -33.875 C 14.625 -34.851562 15.921875 -35.867188 17.734375 -36.921875 C 19.554688 -37.972656 21.671875 -38.5 24.078125 -38.5 C 27.066406 -38.5 29.703125 -37.820312 31.984375 -36.46875 C 34.265625 -35.125 36.039062 -33.210938 37.3125 -30.734375 C 38.59375 -28.253906 39.234375 -25.394531 39.234375 -22.15625 L 39.234375 0 L 29.234375 0 L 29.234375 -21.28125 C 29.234375 -23.488281 28.519531 -25.363281 27.09375 -26.90625 C 25.664062 -28.457031 23.898438 -29.234375 21.796875 -29.234375 C 19.628906 -29.234375 17.847656 -28.472656 16.453125 -26.953125 C 15.054688 -25.429688 14.359375 -23.539062 14.359375 -21.28125 L 14.359375 0 Z M 4.34375 0 "/></g></g></g><g fill="#ffbd59" fill-opacity="1"><g transform="translate(86.266043, 72.689594)"><g><path d="M 17.515625 0.953125 C 14.472656 0.953125 11.785156 0.398438 9.453125 -0.703125 C 7.128906 -1.804688 5.328125 -3.328125 4.046875 -5.265625 C 2.773438 -7.203125 2.085938 -9.375 1.984375 -11.78125 L 11.78125 -11.78125 C 11.875 -10.351562 12.445312 -9.207031 13.5 -8.34375 C 14.5625 -7.488281 15.898438 -7.0625 17.515625 -7.0625 C 19.085938 -7.0625 20.300781 -7.394531 21.15625 -8.0625 C 22.019531 -8.726562 22.453125 -9.550781 22.453125 -10.53125 C 22.453125 -11.757812 21.863281 -12.71875 20.6875 -13.40625 C 19.507812 -14.09375 17.671875 -14.828125 15.171875 -15.609375 C 12.617188 -16.390625 10.519531 -17.171875 8.875 -17.953125 C 7.226562 -18.742188 5.816406 -19.890625 4.640625 -21.390625 C 3.460938 -22.890625 2.875 -24.816406 2.875 -27.171875 C 2.875 -29.328125 3.4375 -31.265625 4.5625 -32.984375 C 5.695312 -34.703125 7.34375 -36.050781 9.5 -37.03125 C 11.65625 -38.007812 14.234375 -38.5 17.234375 -38.5 C 20.078125 -38.5 22.585938 -37.957031 24.765625 -36.875 C 26.953125 -35.800781 28.660156 -34.316406 29.890625 -32.421875 C 31.117188 -30.535156 31.832031 -28.441406 32.03125 -26.140625 L 22.15625 -26.140625 C 21.8125 -29.035156 20.171875 -30.484375 17.234375 -30.484375 C 15.804688 -30.484375 14.722656 -30.195312 13.984375 -29.625 C 13.253906 -29.0625 12.890625 -28.34375 12.890625 -27.46875 C 12.890625 -26.382812 13.441406 -25.535156 14.546875 -24.921875 C 15.648438 -24.304688 17.425781 -23.628906 19.875 -22.890625 C 22.476562 -22.109375 24.613281 -21.335938 26.28125 -20.578125 C 27.945312 -19.816406 29.394531 -18.660156 30.625 -17.109375 C 31.851562 -15.566406 32.46875 -13.570312 32.46875 -11.125 C 32.46875 -7.539062 31.15625 -4.628906 28.53125 -2.390625 C 25.90625 -0.160156 22.234375 0.953125 17.515625 0.953125 Z M 17.515625 0.953125 "/></g></g></g><g fill="#ffbd59" fill-opacity="1"><g transform="translate(131.622241, 72.689594)"><g><path d="M 19.140625 0.953125 C 16.148438 0.953125 13.507812 0.28125 11.21875 -1.0625 C 8.9375 -2.414062 7.15625 -4.332031 5.875 -6.8125 C 4.601562 -9.289062 3.96875 -12.148438 3.96875 -15.390625 L 3.96875 -37.546875 L 13.984375 -37.546875 L 13.984375 -16.265625 C 13.984375 -14.054688 14.695312 -12.175781 16.125 -10.625 C 17.550781 -9.082031 19.316406 -8.3125 21.421875 -8.3125 C 23.585938 -8.3125 25.367188 -9.070312 26.765625 -10.59375 C 28.160156 -12.125 28.859375 -14.015625 28.859375 -16.265625 L 28.859375 -37.546875 L 38.875 -37.546875 L 38.875 0 L 31.359375 0 L 29.75 -3.6875 L 29.375 -3.6875 C 28.59375 -2.695312 27.289062 -1.675781 25.46875 -0.625 C 23.65625 0.425781 21.546875 0.953125 19.140625 0.953125 Z M 19.140625 0.953125 "/></g></g></g><g fill="#ffbd59" fill-opacity="1"><g transform="translate(185.445732, 72.689594)"><g><path d="M 4.34375 0 L 4.34375 -37.546875 L 11.859375 -37.546875 L 13.46875 -33.875 L 13.84375 -33.875 C 14.582031 -34.851562 15.695312 -35.867188 17.1875 -36.921875 C 18.6875 -37.972656 20.492188 -38.5 22.609375 -38.5 C 23.929688 -38.5 25.054688 -38.378906 25.984375 -38.140625 L 25.984375 -28.125 C 25.054688 -28.375 23.804688 -28.5 22.234375 -28.5 C 19.828125 -28.5 17.910156 -27.773438 16.484375 -26.328125 C 15.066406 -24.878906 14.359375 -22.878906 14.359375 -20.328125 L 14.359375 0 Z M 4.34375 0 "/></g></g></g><g fill="#ffbd59" fill-opacity="1"><g transform="translate(222.923655, 72.689594)"><g><path d="M 19.0625 -38.5 C 23.925781 -38.5 27.753906 -37.039062 30.546875 -34.125 C 33.347656 -31.207031 34.75 -27.316406 34.75 -22.453125 L 34.75 0 L 27.234375 0 L 25.625 -3.6875 L 25.25 -3.6875 C 22.300781 -0.59375 18.742188 0.953125 14.578125 0.953125 C 12.222656 0.953125 10.078125 0.460938 8.140625 -0.515625 C 6.203125 -1.492188 4.679688 -2.84375 3.578125 -4.5625 C 2.472656 -6.28125 1.921875 -8.171875 1.921875 -10.234375 C 1.921875 -12.785156 2.679688 -15.003906 4.203125 -16.890625 C 5.722656 -18.785156 7.84375 -20.234375 10.5625 -21.234375 C 13.289062 -22.242188 16.421875 -22.75 19.953125 -22.75 L 24.734375 -22.75 L 24.734375 -23.484375 C 24.734375 -25.398438 24.21875 -26.894531 23.1875 -27.96875 C 22.15625 -29.050781 20.757812 -29.59375 19 -29.59375 C 17.476562 -29.59375 16.257812 -29.1875 15.34375 -28.375 C 14.4375 -27.570312 13.882812 -26.703125 13.6875 -25.765625 L 3.6875 -25.765625 C 3.875 -27.972656 4.566406 -30.046875 5.765625 -31.984375 C 6.972656 -33.921875 8.707031 -35.488281 10.96875 -36.6875 C 13.226562 -37.894531 15.925781 -38.5 19.0625 -38.5 Z M 16.9375 -7.21875 C 19.238281 -7.21875 21.113281 -7.90625 22.5625 -9.28125 C 24.007812 -10.65625 24.734375 -12.273438 24.734375 -14.140625 L 24.734375 -16.046875 L 19.65625 -16.046875 C 16.957031 -16.046875 14.992188 -15.613281 13.765625 -14.75 C 12.535156 -13.894531 11.921875 -12.707031 11.921875 -11.1875 C 11.921875 -10.007812 12.347656 -9.050781 13.203125 -8.3125 C 14.066406 -7.582031 15.3125 -7.21875 16.9375 -7.21875 Z M 16.9375 -7.21875 "/></g></g></g><g fill="#ffbd59" fill-opacity="1"><g transform="translate(272.255793, 72.689594)"><g><path d="M 4.34375 0 L 4.34375 -37.546875 L 11.859375 -37.546875 L 13.46875 -33.875 L 13.84375 -33.875 C 14.625 -34.851562 15.921875 -35.867188 17.734375 -36.921875 C 19.554688 -37.972656 21.671875 -38.5 24.078125 -38.5 C 27.066406 -38.5 29.703125 -37.820312 31.984375 -36.46875 C 34.265625 -35.125 36.039062 -33.210938 37.3125 -30.734375 C 38.59375 -28.253906 39.234375 -25.394531 39.234375 -22.15625 L 39.234375 0 L 29.234375 0 L 29.234375 -21.28125 C 29.234375 -23.488281 28.519531 -25.363281 27.09375 -26.90625 C 25.664062 -28.457031 23.898438 -29.234375 21.796875 -29.234375 C 19.628906 -29.234375 17.847656 -28.472656 16.453125 -26.953125 C 15.054688 -25.429688 14.359375 -23.539062 14.359375 -21.28125 L 14.359375 0 Z M 4.34375 0 "/></g></g></g><g fill="#ffbd59" fill-opacity="1"><g transform="translate(326.079285, 72.689594)"><g><path d="M 21.578125 0.953125 C 18.179688 0.953125 15.007812 0.0546875 12.0625 -1.734375 C 9.125 -3.523438 6.769531 -5.941406 5 -8.984375 C 3.238281 -12.023438 2.359375 -15.289062 2.359375 -18.78125 C 2.359375 -22.257812 3.238281 -25.519531 5 -28.5625 C 6.769531 -31.601562 9.125 -34.019531 12.0625 -35.8125 C 15.007812 -37.601562 18.179688 -38.5 21.578125 -38.5 C 24.660156 -38.5 27.476562 -37.773438 30.03125 -36.328125 C 32.59375 -34.878906 34.679688 -32.988281 36.296875 -30.65625 C 37.921875 -28.332031 38.976562 -25.914062 39.46875 -23.40625 L 29.453125 -23.40625 C 29.253906 -24.09375 28.832031 -24.890625 28.1875 -25.796875 C 27.550781 -26.710938 26.671875 -27.515625 25.546875 -28.203125 C 24.421875 -28.890625 23.097656 -29.234375 21.578125 -29.234375 C 18.921875 -29.234375 16.722656 -28.25 14.984375 -26.28125 C 13.242188 -24.320312 12.375 -21.820312 12.375 -18.78125 C 12.375 -15.726562 13.242188 -13.21875 14.984375 -11.25 C 16.722656 -9.289062 18.921875 -8.3125 21.578125 -8.3125 C 23.097656 -8.3125 24.421875 -8.65625 25.546875 -9.34375 C 26.671875 -10.03125 27.550781 -10.828125 28.1875 -11.734375 C 28.832031 -12.648438 29.253906 -13.453125 29.453125 -14.140625 L 39.46875 -14.140625 C 38.976562 -11.628906 37.921875 -9.207031 36.296875 -6.875 C 34.679688 -4.550781 32.59375 -2.664062 30.03125 -1.21875 C 27.476562 0.226562 24.660156 0.953125 21.578125 0.953125 Z M 21.578125 0.953125 "/></g></g></g><g fill="#ffbd59" fill-opacity="1"><g transform="translate(378.135679, 72.689594)"><g><path d="M 39.90625 -19.359375 C 39.90625 -17.546875 39.757812 -16.148438 39.46875 -15.171875 L 12.4375 -15.171875 C 12.976562 -12.910156 14.046875 -11.140625 15.640625 -9.859375 C 17.234375 -8.585938 19.160156 -7.953125 21.421875 -7.953125 C 24.171875 -7.953125 26.40625 -8.882812 28.125 -10.75 L 38.65625 -10.75 C 37.914062 -8.9375 36.75 -7.117188 35.15625 -5.296875 C 33.5625 -3.484375 31.582031 -1.988281 29.21875 -0.8125 C 26.863281 0.363281 24.316406 0.953125 21.578125 0.953125 C 18.085938 0.953125 14.867188 0.0703125 11.921875 -1.6875 C 8.984375 -3.457031 6.65625 -5.851562 4.9375 -8.875 C 3.21875 -11.894531 2.359375 -15.195312 2.359375 -18.78125 C 2.359375 -22.257812 3.226562 -25.519531 4.96875 -28.5625 C 6.707031 -31.601562 9.050781 -34.019531 12 -35.8125 C 14.945312 -37.601562 18.085938 -38.5 21.421875 -38.5 C 24.804688 -38.5 27.910156 -37.664062 30.734375 -36 C 33.554688 -34.332031 35.789062 -32.035156 37.4375 -29.109375 C 39.082031 -26.191406 39.90625 -22.941406 39.90625 -19.359375 Z M 21.421875 -29.59375 C 19.265625 -29.59375 17.375 -28.941406 15.75 -27.640625 C 14.132812 -26.335938 13.03125 -24.5625 12.4375 -22.3125 L 30.265625 -22.3125 C 29.671875 -24.519531 28.578125 -26.285156 26.984375 -27.609375 C 25.390625 -28.929688 23.535156 -29.59375 21.421875 -29.59375 Z M 21.421875 -29.59375 "/></g></g></g><g fill="#ffbd59" fill-opacity="1"><g transform="translate(431.001994, 72.689594)"><g/></g></g><g fill="#ffbd59" fill-opacity="1"><g transform="translate(460.159877, 72.689594)"><g><path d="M 48.21875 0 L 37.1875 0 L 33.421875 -10.609375 L 13.984375 -10.609375 L 10.234375 0 L -0.4375 0 L 18.78125 -51.53125 L 29.078125 -51.53125 Z M 29.96875 -20.328125 L 23.703125 -38.4375 L 17.453125 -20.328125 Z M 29.96875 -20.328125 "/></g></g></g><g fill="#ffbd59" fill-opacity="1"><g transform="translate(518.548349, 72.689594)"><g><path d="M 21.34375 13.984375 C 17.46875 13.984375 14.265625 13.25 11.734375 11.78125 C 9.210938 10.3125 7.363281 8.65625 6.1875 6.8125 C 5.007812 4.96875 4.25 3.335938 3.90625 1.921875 L 14.203125 1.921875 C 14.648438 2.753906 15.460938 3.488281 16.640625 4.125 C 17.816406 4.757812 19.3125 5.078125 21.125 5.078125 C 23.675781 5.078125 25.675781 4.398438 27.125 3.046875 C 28.570312 1.703125 29.296875 -0.195312 29.296875 -2.65625 L 29.296875 -5.671875 L 28.9375 -5.671875 C 28.34375 -4.785156 27.1875 -3.851562 25.46875 -2.875 C 23.75 -1.894531 21.765625 -1.40625 19.515625 -1.40625 C 16.472656 -1.40625 13.632812 -2.238281 11 -3.90625 C 8.375 -5.570312 6.273438 -7.816406 4.703125 -10.640625 C 3.140625 -13.460938 2.359375 -16.566406 2.359375 -19.953125 C 2.359375 -23.285156 3.140625 -26.375 4.703125 -29.21875 C 6.273438 -32.070312 8.375 -34.332031 11 -36 C 13.632812 -37.664062 16.445312 -38.5 19.4375 -38.5 C 21.9375 -38.5 24.070312 -37.984375 25.84375 -36.953125 C 27.613281 -35.921875 28.9375 -34.894531 29.8125 -33.875 L 30.1875 -33.875 L 31.875 -37.546875 L 39.3125 -37.546875 L 39.3125 -2.796875 C 39.3125 2.398438 37.71875 6.492188 34.53125 9.484375 C 31.34375 12.484375 26.945312 13.984375 21.34375 13.984375 Z M 20.828125 -10.3125 C 22.359375 -10.3125 23.769531 -10.726562 25.0625 -11.5625 C 26.363281 -12.394531 27.394531 -13.546875 28.15625 -15.015625 C 28.914062 -16.492188 29.296875 -18.140625 29.296875 -19.953125 C 29.296875 -21.765625 28.914062 -23.40625 28.15625 -24.875 C 27.394531 -26.351562 26.363281 -27.507812 25.0625 -28.34375 C 23.769531 -29.175781 22.359375 -29.59375 20.828125 -29.59375 C 18.472656 -29.59375 16.472656 -28.671875 14.828125 -26.828125 C 13.191406 -24.992188 12.375 -22.703125 12.375 -19.953125 C 12.375 -17.203125 13.191406 -14.90625 14.828125 -13.0625 C 16.472656 -11.226562 18.472656 -10.3125 20.828125 -10.3125 Z M 20.828125 -10.3125 "/></g></g></g><g fill="#ffbd59" fill-opacity="1"><g transform="translate(572.813605, 72.689594)"><g><path d="M 39.90625 -19.359375 C 39.90625 -17.546875 39.757812 -16.148438 39.46875 -15.171875 L 12.4375 -15.171875 C 12.976562 -12.910156 14.046875 -11.140625 15.640625 -9.859375 C 17.234375 -8.585938 19.160156 -7.953125 21.421875 -7.953125 C 24.171875 -7.953125 26.40625 -8.882812 28.125 -10.75 L 38.65625 -10.75 C 37.914062 -8.9375 36.75 -7.117188 35.15625 -5.296875 C 33.5625 -3.484375 31.582031 -1.988281 29.21875 -0.8125 C 26.863281 0.363281 24.316406 0.953125 21.578125 0.953125 C 18.085938 0.953125 14.867188 0.0703125 11.921875 -1.6875 C 8.984375 -3.457031 6.65625 -5.851562 4.9375 -8.875 C 3.21875 -11.894531 2.359375 -15.195312 2.359375 -18.78125 C 2.359375 -22.257812 3.226562 -25.519531 4.96875 -28.5625 C 6.707031 -31.601562 9.050781 -34.019531 12 -35.8125 C 14.945312 -37.601562 18.085938 -38.5 21.421875 -38.5 C 24.804688 -38.5 27.910156 -37.664062 30.734375 -36 C 33.554688 -34.332031 35.789062 -32.035156 37.4375 -29.109375 C 39.082031 -26.191406 39.90625 -22.941406 39.90625 -19.359375 Z M 21.421875 -29.59375 C 19.265625 -29.59375 17.375 -28.941406 15.75 -27.640625 C 14.132812 -26.335938 13.03125 -24.5625 12.4375 -22.3125 L 30.265625 -22.3125 C 29.671875 -24.519531 28.578125 -26.285156 26.984375 -27.609375 C 25.390625 -28.929688 23.535156 -29.59375 21.421875 -29.59375 Z M 21.421875 -29.59375 "/></g></g></g><g fill="#ffbd59" fill-opacity="1"><g transform="translate(625.67992, 72.689594)"><g><path d="M 4.34375 0 L 4.34375 -37.546875 L 11.859375 -37.546875 L 13.46875 -33.875 L 13.84375 -33.875 C 14.625 -34.851562 15.921875 -35.867188 17.734375 -36.921875 C 19.554688 -37.972656 21.671875 -38.5 24.078125 -38.5 C 27.066406 -38.5 29.703125 -37.820312 31.984375 -36.46875 C 34.265625 -35.125 36.039062 -33.210938 37.3125 -30.734375 C 38.59375 -28.253906 39.234375 -25.394531 39.234375 -22.15625 L 39.234375 0 L 29.234375 0 L 29.234375 -21.28125 C 29.234375 -23.488281 28.519531 -25.363281 27.09375 -26.90625 C 25.664062 -28.457031 23.898438 -29.234375 21.796875 -29.234375 C 19.628906 -29.234375 17.847656 -28.472656 16.453125 -26.953125 C 15.054688 -25.429688 14.359375 -23.539062 14.359375 -21.28125 L 14.359375 0 Z M 4.34375 0 "/></g></g></g><g fill="#ffbd59" fill-opacity="1"><g transform="translate(679.503412, 72.689594)"><g><path d="M 21.578125 0.953125 C 18.179688 0.953125 15.007812 0.0546875 12.0625 -1.734375 C 9.125 -3.523438 6.769531 -5.941406 5 -8.984375 C 3.238281 -12.023438 2.359375 -15.289062 2.359375 -18.78125 C 2.359375 -22.257812 3.238281 -25.519531 5 -28.5625 C 6.769531 -31.601562 9.125 -34.019531 12.0625 -35.8125 C 15.007812 -37.601562 18.179688 -38.5 21.578125 -38.5 C 24.660156 -38.5 27.476562 -37.773438 30.03125 -36.328125 C 32.59375 -34.878906 34.679688 -32.988281 36.296875 -30.65625 C 37.921875 -28.332031 38.976562 -25.914062 39.46875 -23.40625 L 29.453125 -23.40625 C 29.253906 -24.09375 28.832031 -24.890625 28.1875 -25.796875 C 27.550781 -26.710938 26.671875 -27.515625 25.546875 -28.203125 C 24.421875 -28.890625 23.097656 -29.234375 21.578125 -29.234375 C 18.921875 -29.234375 16.722656 -28.25 14.984375 -26.28125 C 13.242188 -24.320312 12.375 -21.820312 12.375 -18.78125 C 12.375 -15.726562 13.242188 -13.21875 14.984375 -11.25 C 16.722656 -9.289062 18.921875 -8.3125 21.578125 -8.3125 C 23.097656 -8.3125 24.421875 -8.65625 25.546875 -9.34375 C 26.671875 -10.03125 27.550781 -10.828125 28.1875 -11.734375 C 28.832031 -12.648438 29.253906 -13.453125 29.453125 -14.140625 L 39.46875 -14.140625 C 38.976562 -11.628906 37.921875 -9.207031 36.296875 -6.875 C 34.679688 -4.550781 32.59375 -2.664062 30.03125 -1.21875 C 27.476562 0.226562 24.660156 0.953125 21.578125 0.953125 Z M 21.578125 0.953125 "/></g></g></g><g fill="#ffbd59" fill-opacity="1"><g transform="translate(731.559766, 72.689594)"><g><path d="M 27.828125 -37.546875 L 38.140625 -37.546875 L 23.125 1.109375 C 21.351562 5.671875 19.460938 8.894531 17.453125 10.78125 C 15.441406 12.675781 13.0625 13.625 10.3125 13.625 C 8.6875 13.625 7.113281 13.351562 5.59375 12.8125 L 5.59375 3.6875 C 6.28125 4.03125 7.1875 4.203125 8.3125 4.203125 C 9.882812 4.203125 11.148438 3.867188 12.109375 3.203125 C 13.066406 2.535156 13.84375 1.367188 14.4375 -0.296875 L 14.65625 -1.03125 L 0 -37.546875 L 10.828125 -37.546875 L 19.578125 -13.109375 Z M 27.828125 -37.546875 "/></g></g></g></g></g></g></svg>
